# xmcd CD database file
#
# Track frame offsets:
#	150
#	27900
#	46854
#	63679
#	80508
#	97558
#	113995
#	129462
#	147117
#	170652
#	192823
#	211387
#	228429
#	246709
#	263784
#	286884
#	303466
#	321748
#	338089
#	348775
#
# Disc length: 4911 seconds
#
# Revision: 2
# Processed by: cddbd v1.4b41PL1 Copyright (c) Steve Scherf et al.
# Submitted via: Feurio! 1.50.2ß - http://www.feurio.com
#
DISCID=29132d14
DTITLE=Various Artist - Unbekannte CD #29132D1477F5CF52
DYEAR=1900
DGENRE=
TTITLE0=??? - Track 01
TTITLE1=??? - Track 02
TTITLE2=??? - Track 03
TTITLE3=??? - Track 04
TTITLE4=??? - Track 05
TTITLE5=??? - Track 06
TTITLE6=??? - Track 07
TTITLE7=??? - Track 08
TTITLE8=??? - Track 09
TTITLE9=??? - Track 10
TTITLE10=??? - Track 11
TTITLE11=??? - Track 12
TTITLE12=??? - Track 13
TTITLE13=??? - Track 14
TTITLE14=??? - Track 15
TTITLE15=??? - Track 16
TTITLE16=??? - Track 17
TTITLE17=??? - Track 18
TTITLE18=??? - Track 19
TTITLE19=??? - Track 20
EXTD=
EXTT0=
EXTT1=
EXTT2=
EXTT3=
EXTT4=
EXTT5=
EXTT6=
EXTT7=
EXTT8=
EXTT9=
EXTT10=
EXTT11=
EXTT12=
EXTT13=
EXTT14=
EXTT15=
EXTT16=
EXTT17=
EXTT18=
EXTT19=
PLAYORDER=
